# xmcd
#
# Track frame offsets:
#	150
#	29459
#	54171
#	79809
#	93632
#	113406
#	147697
#	162556
#	185343
#	195998
#	216256
#
# Disc length: 3166 seconds
#
# Revision: 0
# Processed by: cddbd v1.5.2PL0 Copyright (c) Steve Scherf et al.
# Submitted via: EZCDAudioConverter 2.1.7.1
#
DISCID=960c5c0b
DTITLE=Phil Collins - Hello, I Must Be Going! 2/2
DYEAR=1900
DGENRE=
TTITLE0=I Don't Care Anymore [Live]
TTITLE1=I Cannot Believe It's True [Live]
TTITLE2=Like China [Live]
TTITLE3=You Can't Hurry Love [Live]
TTITLE4=It Don't Matter To Me [Live]
TTITLE5=The West Side [Live]
TTITLE6=People Get Ready [Live]
TTITLE7=Thru These Walls [Live]
TTITLE8=It's Alright [Live]
TTITLE9=Oddball [Demo]
TTITLE10=Don't Let Him Steal Your Heart Away [Demo]
EXTD=
EXTT0=
EXTT1=
EXTT2=
EXTT3=
EXTT4=
EXTT5=
EXTT6=
EXTT7=
EXTT8=
EXTT9=
EXTT10=
PLAYORDER=
